<mxfile host="app.diagrams.net" modified="2023-09-04T12:32:16.411Z" agent="Mozilla/5.0 (Windows NT 10.0; Win64; x64) AppleWebKit/537.36 (KHTML, like Gecko) Chrome/116.0.0.0 Safari/537.36 Edg/116.0.1938.69" etag="NwGkouzOolh-O346Snqj" version="21.7.2" type="github">
  <diagram name="Página-1" id="omE9PWUWz__7C-4MCFwf">
    <mxGraphModel dx="1386" dy="793" grid="1" gridSize="10" guides="1" tooltips="1" connect="1" arrows="1" fold="1" page="1" pageScale="1" pageWidth="827" pageHeight="1169" math="0" shadow="0">
      <root>
        <mxCell id="0" />
        <mxCell id="1" parent="0" />
        <mxCell id="lIW0sCZ_wb4XTKwyt0aE-9" style="edgeStyle=orthogonalEdgeStyle;rounded=0;orthogonalLoop=1;jettySize=auto;html=1;endArrow=none;endFill=0;" edge="1" parent="1" source="lIW0sCZ_wb4XTKwyt0aE-1" target="lIW0sCZ_wb4XTKwyt0aE-2">
          <mxGeometry relative="1" as="geometry" />
        </mxCell>
        <mxCell id="lIW0sCZ_wb4XTKwyt0aE-1" value="Usuário" style="shape=umlActor;verticalLabelPosition=bottom;verticalAlign=top;html=1;" vertex="1" parent="1">
          <mxGeometry x="170" y="270" width="30" height="60" as="geometry" />
        </mxCell>
        <mxCell id="lIW0sCZ_wb4XTKwyt0aE-13" style="rounded=0;orthogonalLoop=1;jettySize=auto;html=1;exitX=1;exitY=1;exitDx=0;exitDy=0;entryX=0;entryY=0;entryDx=0;entryDy=0;endArrow=none;endFill=0;" edge="1" parent="1" source="lIW0sCZ_wb4XTKwyt0aE-2" target="lIW0sCZ_wb4XTKwyt0aE-3">
          <mxGeometry relative="1" as="geometry" />
        </mxCell>
        <mxCell id="lIW0sCZ_wb4XTKwyt0aE-2" value="Autentificação" style="ellipse;whiteSpace=wrap;html=1;" vertex="1" parent="1">
          <mxGeometry x="274" y="265" width="140" height="70" as="geometry" />
        </mxCell>
        <mxCell id="lIW0sCZ_wb4XTKwyt0aE-14" style="rounded=0;orthogonalLoop=1;jettySize=auto;html=1;exitX=1;exitY=0;exitDx=0;exitDy=0;entryX=0;entryY=1;entryDx=0;entryDy=0;endArrow=none;endFill=0;" edge="1" parent="1" source="lIW0sCZ_wb4XTKwyt0aE-3" target="lIW0sCZ_wb4XTKwyt0aE-4">
          <mxGeometry relative="1" as="geometry" />
        </mxCell>
        <mxCell id="lIW0sCZ_wb4XTKwyt0aE-3" value="Interface" style="ellipse;whiteSpace=wrap;html=1;" vertex="1" parent="1">
          <mxGeometry x="380" y="380" width="140" height="70" as="geometry" />
        </mxCell>
        <mxCell id="lIW0sCZ_wb4XTKwyt0aE-11" style="edgeStyle=orthogonalEdgeStyle;rounded=0;orthogonalLoop=1;jettySize=auto;html=1;exitX=1;exitY=0.5;exitDx=0;exitDy=0;entryX=0;entryY=0.5;entryDx=0;entryDy=0;endArrow=none;endFill=0;" edge="1" parent="1" source="lIW0sCZ_wb4XTKwyt0aE-4" target="lIW0sCZ_wb4XTKwyt0aE-8">
          <mxGeometry relative="1" as="geometry" />
        </mxCell>
        <mxCell id="lIW0sCZ_wb4XTKwyt0aE-12" style="rounded=0;orthogonalLoop=1;jettySize=auto;html=1;exitX=1;exitY=1;exitDx=0;exitDy=0;entryX=0;entryY=0;entryDx=0;entryDy=0;endArrow=none;endFill=0;" edge="1" parent="1" source="lIW0sCZ_wb4XTKwyt0aE-4" target="lIW0sCZ_wb4XTKwyt0aE-5">
          <mxGeometry relative="1" as="geometry" />
        </mxCell>
        <mxCell id="lIW0sCZ_wb4XTKwyt0aE-4" value="Lista de Usinas Solares" style="ellipse;whiteSpace=wrap;html=1;" vertex="1" parent="1">
          <mxGeometry x="490" y="265" width="140" height="70" as="geometry" />
        </mxCell>
        <mxCell id="lIW0sCZ_wb4XTKwyt0aE-5" value="Informações da Usina" style="ellipse;whiteSpace=wrap;html=1;" vertex="1" parent="1">
          <mxGeometry x="630" y="390" width="140" height="70" as="geometry" />
        </mxCell>
        <mxCell id="lIW0sCZ_wb4XTKwyt0aE-16" style="rounded=0;orthogonalLoop=1;jettySize=auto;html=1;exitX=0;exitY=1;exitDx=0;exitDy=0;entryX=1;entryY=0;entryDx=0;entryDy=0;endArrow=none;endFill=0;" edge="1" parent="1" source="lIW0sCZ_wb4XTKwyt0aE-6" target="lIW0sCZ_wb4XTKwyt0aE-4">
          <mxGeometry relative="1" as="geometry" />
        </mxCell>
        <mxCell id="lIW0sCZ_wb4XTKwyt0aE-17" style="rounded=0;orthogonalLoop=1;jettySize=auto;html=1;exitX=1;exitY=0;exitDx=0;exitDy=0;entryX=0.5;entryY=1;entryDx=0;entryDy=0;endArrow=none;endFill=0;" edge="1" parent="1" source="lIW0sCZ_wb4XTKwyt0aE-6" target="lIW0sCZ_wb4XTKwyt0aE-7">
          <mxGeometry relative="1" as="geometry" />
        </mxCell>
        <mxCell id="lIW0sCZ_wb4XTKwyt0aE-6" value="Organizar por Datas" style="ellipse;whiteSpace=wrap;html=1;" vertex="1" parent="1">
          <mxGeometry x="600" y="170" width="140" height="70" as="geometry" />
        </mxCell>
        <mxCell id="lIW0sCZ_wb4XTKwyt0aE-7" value="Gráficos da geração de energia" style="ellipse;whiteSpace=wrap;html=1;" vertex="1" parent="1">
          <mxGeometry x="687" y="70" width="140" height="70" as="geometry" />
        </mxCell>
        <mxCell id="lIW0sCZ_wb4XTKwyt0aE-8" value="Mapa com as Usinas" style="ellipse;whiteSpace=wrap;html=1;" vertex="1" parent="1">
          <mxGeometry x="687" y="265" width="140" height="70" as="geometry" />
        </mxCell>
      </root>
    </mxGraphModel>
  </diagram>
</mxfile>
